<svg width="46" height="21" viewBox="0 0 46 21" fill="none" xmlns="http://www.w3.org/2000/svg">
<g clip-path="url(#clip0_2_11)">
<path d="M36.9982 21C40.3401 21 42.8865 19.9657 44.2383 18.535C44.9541 17.74 45.7907 16.5075 45.1934 15.553C44.676 14.7192 43.8006 14.5597 42.7656 15.0768C41.7307 15.594 40.5772 15.8719 39.2642 15.8719C37.9921 15.8719 36.638 15.3958 35.9222 14.6781C35.0469 13.8033 34.5704 12.6893 34.5704 11.3771C34.5704 11.0582 34.7687 11.0194 35.1266 11.2974C36.0408 12.0127 37.3949 12.3704 39.2254 12.3704C42.6061 12.3704 45.5901 10.1036 45.5901 6.60439C45.5901 2.90695 42.0886 0.164062 36.7976 0.164062C30.8706 0.164062 26.2954 3.97996 26.2954 10.4226C26.2977 16.4278 30.2756 21 36.9982 21Z" fill="#161616"/>
<path d="M12.5311 14.7123C13.1671 14.7123 13.525 15.0699 13.9627 15.7466L15.873 18.7286C16.5888 19.8814 17.186 20.6765 18.5789 20.6765C19.9717 20.6765 20.6077 20.1206 21.2848 18.5692C22.1191 16.6601 22.9945 14.3546 23.7901 11.254C24.6655 7.79354 25.0621 5.64753 25.0621 3.89791C25.0621 2.14829 24.5059 1.11401 22.5978 0.756345C19.9717 0.277934 16.4315 0 12.5311 0C8.63063 0 5.09267 0.277934 2.46655 0.756345C0.556227 1.11401 0 2.14601 0 3.89563C0 5.64525 0.398933 7.79126 1.27203 11.2518C2.06989 14.3523 2.94299 16.6601 3.77961 18.5669C4.45665 20.1183 5.09267 20.6742 6.48551 20.6742C7.87836 20.6742 8.47562 19.8791 9.19142 18.7264L11.1017 15.7443C11.5371 15.0699 11.895 14.7123 12.5311 14.7123Z" fill="black"/>
</g>
<defs>
<clipPath id="clip0_2_11">
<rect width="46" height="21" fill="white"/>
</clipPath>
</defs>
</svg>
