<svg width="18" height="18" viewBox="0 0 18 18" fill="none" xmlns="http://www.w3.org/2000/svg">
<g clip-path="url(#clip0_2_308)">
<path d="M2.5875 1.32223e-06C1.90125 1.32223e-06 1.24311 0.272612 0.757863 0.757863C0.272612 1.24311 1.32223e-06 1.90125 1.32223e-06 2.5875V15.525C-0.000344638 15.8597 0.067203 16.191 0.198559 16.4989C0.329915 16.8067 0.522349 17.0847 0.764224 17.3161C1.0061 17.5475 1.29239 17.7274 1.60578 17.8449C1.91916 17.9625 2.25314 18.0152 2.5875 18H9.5625V11.025H7.3125V8.325H9.5625V6.3C9.5117 5.82449 9.56605 5.34362 9.72171 4.89145C9.87737 4.43927 10.1305 4.02685 10.4633 3.68337C10.796 3.3399 11.2002 3.07377 11.6472 2.90384C12.0942 2.7339 12.5731 2.66431 13.05 2.7H15.1875V5.2875H13.725C12.6 5.2875 12.375 5.85 12.375 6.6375V8.325H15.075L14.7375 11.025H12.375V18H15.525C16.1814 18 16.8109 17.7392 17.2751 17.2751C17.7392 16.8109 18 16.1814 18 15.525V2.5875C18.0152 2.25314 17.9625 1.91916 17.8449 1.60578C17.7274 1.29239 17.5475 1.0061 17.3161 0.764224C17.0847 0.522349 16.8067 0.329915 16.4989 0.198559C16.191 0.067203 15.8597 -0.000344638 15.525 1.32223e-06H2.5875Z" fill="black"/>
</g>
<defs>
<clipPath id="clip0_2_308">
<rect width="18" height="18" fill="white"/>
</clipPath>
</defs>
</svg>
