<svg width="18" height="18" viewBox="0 0 18 18" fill="none" xmlns="http://www.w3.org/2000/svg">
<g clip-path="url(#clip0_2_312)">
<path d="M18 5.2875C17.9396 4.55904 17.7884 3.84098 17.55 3.15C17.3235 2.52792 16.9798 1.95506 16.5375 1.4625C16.0449 1.02017 15.4721 0.676455 14.85 0.45L12.7125 0H5.2875L3.15 0.45C2.52792 0.676455 1.95506 1.02017 1.4625 1.4625C1.02017 1.95506 0.676455 2.52792 0.45 3.15C0.211558 3.84098 0.0603873 4.55904 0 5.2875L0 12.7125C0.0603873 13.441 0.211558 14.159 0.45 14.85C0.676455 15.4721 1.02017 16.0449 1.4625 16.5375C1.95506 16.9798 2.52792 17.3235 3.15 17.55L5.2875 18H12.7125L14.85 17.55C15.4721 17.3235 16.0449 16.9798 16.5375 16.5375C16.9798 16.0449 17.3235 15.4721 17.55 14.85C17.7884 14.159 17.9396 13.441 18 12.7125V5.2875ZM16.3125 12.6C16.3156 13.1796 16.2007 13.7537 15.975 14.2875C15.8838 14.6972 15.6431 15.0582 15.3 15.3C15.0582 15.6431 14.6972 15.8838 14.2875 15.975C13.7537 16.2007 13.1796 16.3156 12.6 16.3125H5.4C4.82044 16.3156 4.24631 16.2007 3.7125 15.975C3.3028 15.8838 2.94181 15.6431 2.7 15.3C2.35691 15.0582 2.11625 14.6972 2.025 14.2875C1.79927 13.7537 1.68445 13.1796 1.6875 12.6C1.56301 11.4043 1.52542 10.2011 1.575 9C1.52542 7.79886 1.56301 6.5957 1.6875 5.4C1.68445 4.82044 1.79927 4.24631 2.025 3.7125C2.11625 3.3028 2.35691 2.94181 2.7 2.7C2.94181 2.35691 3.3028 2.11625 3.7125 2.025C4.24631 1.79927 4.82044 1.68445 5.4 1.6875H12.6C13.1796 1.68445 13.7537 1.79927 14.2875 2.025C14.6972 2.11625 15.0582 2.35691 15.3 2.7C15.6431 2.94181 15.8838 3.3028 15.975 3.7125C16.2007 4.24631 16.3156 4.82044 16.3125 5.4C16.437 6.5957 16.4746 7.79886 16.425 9C16.4746 10.2011 16.437 11.4043 16.3125 12.6Z" fill="black"/>
<path d="M8.99995 4.3877C7.77664 4.3877 6.60343 4.87365 5.73842 5.73866C4.87341 6.60368 4.38745 7.77688 4.38745 9.0002C4.38745 10.2235 4.87341 11.3967 5.73842 12.2617C6.60343 13.1267 7.77664 13.6127 8.99995 13.6127C9.60567 13.6127 10.2055 13.4934 10.7651 13.2616C11.3247 13.0298 11.8332 12.69 12.2615 12.2617C12.6898 11.8334 13.0295 11.3249 13.2613 10.7653C13.4931 10.2057 13.6125 9.60592 13.6125 9.0002C13.6125 8.39447 13.4931 7.79468 13.2613 7.23507C13.0295 6.67545 12.6898 6.16698 12.2615 5.73866C11.8332 5.31035 11.3247 4.9706 10.7651 4.7388C10.2055 4.507 9.60567 4.3877 8.99995 4.3877ZM8.99995 12.0377C8.39919 12.0377 7.81192 11.8595 7.31241 11.5258C6.81289 11.192 6.42357 10.7176 6.19367 10.1626C5.96377 9.60757 5.90361 8.99683 6.02082 8.40761C6.13802 7.81839 6.42731 7.27716 6.85211 6.85236C7.27692 6.42756 7.81815 6.13826 8.40736 6.02106C8.99658 5.90386 9.60732 5.96401 10.1624 6.19391C10.7174 6.42381 11.1918 6.81314 11.5255 7.31265C11.8593 7.81217 12.0375 8.39943 12.0375 9.0002C12.0375 9.80579 11.7174 10.5784 11.1478 11.148C10.5781 11.7177 9.80555 12.0377 8.99995 12.0377Z" fill="black"/>
<path d="M14.85 4.16233C14.8659 4.30443 14.8515 4.44828 14.8078 4.58442C14.7641 4.72056 14.692 4.84589 14.5964 4.95217C14.5007 5.05845 14.3837 5.14327 14.2529 5.20104C14.1221 5.2588 13.9805 5.28821 13.8375 5.28733C13.6854 5.30542 13.5312 5.28877 13.3865 5.23863C13.2418 5.18849 13.1103 5.10616 13.002 4.99786C12.8937 4.88955 12.8114 4.75809 12.7612 4.61336C12.7111 4.46864 12.6944 4.31442 12.7125 4.16233C12.7116 4.01934 12.7411 3.87779 12.7988 3.747C12.8566 3.6162 12.9414 3.49912 13.0477 3.40347C13.154 3.30782 13.2793 3.23576 13.4154 3.19204C13.5516 3.14832 13.6954 3.13394 13.8375 3.14983C14.1061 3.14983 14.3636 3.2565 14.5535 3.44638C14.7434 3.63626 14.85 3.89379 14.85 4.16233Z" fill="black"/>
</g>
<defs>
<clipPath id="clip0_2_312">
<rect width="18" height="18" fill="white"/>
</clipPath>
</defs>
</svg>
