<svg width="18" height="15" viewBox="0 0 18 15" fill="none" xmlns="http://www.w3.org/2000/svg">
<path d="M17.55 0.338346C16.8032 0.736866 16.0095 1.03998 15.1875 1.2406C14.8427 0.863784 14.4262 0.559908 13.9625 0.346852C13.4988 0.133797 12.9973 0.0158667 12.4875 0C11.5106 0.0199168 10.5808 0.425156 9.9 1.12782C9.53942 1.47911 9.25377 1.90016 9.06039 2.36545C8.867 2.83074 8.76991 3.33055 8.775 3.83459C8.75674 4.13972 8.79488 4.4456 8.8875 4.73684C7.3843 4.6704 5.91866 4.24507 4.6125 3.49624C3.27496 2.84639 2.11629 1.87841 1.2375 0.676692C0.928305 1.2674 0.773486 1.92703 0.7875 2.59398C0.734587 3.2147 0.853644 3.83801 1.13155 4.39521C1.40946 4.95242 1.83542 5.42189 2.3625 5.75188C1.80262 5.77646 1.24992 5.61815 0.7875 5.30075C0.750312 6.16048 1.0307 7.00376 1.575 7.66917C2.1022 8.38555 2.85547 8.90224 3.7125 9.13534H2.025C2.23242 9.91543 2.71124 10.5955 3.375 11.0526C3.9402 11.54 4.65485 11.8186 5.4 11.8421C4.12688 12.8736 2.53687 13.4315 0.9 13.4211H0C1.66418 14.5359 3.62348 15.1252 5.625 15.1128C7.18424 15.1387 8.72708 14.7907 10.125 14.0977C11.428 13.4947 12.5808 12.6087 13.5 11.5038C14.3052 10.4596 14.9849 9.32393 15.525 8.1203C15.9575 6.88768 16.1855 5.5923 16.2 4.28571V3.83459C16.9141 3.26891 17.5233 2.58175 18 1.80451C17.3436 2.16337 16.6101 2.3569 15.8625 2.36842C16.6472 1.91355 17.2452 1.19411 17.55 0.338346Z" fill="black"/>
</svg>
