<svg width="23" height="16" viewBox="0 0 23 16" fill="none" xmlns="http://www.w3.org/2000/svg">
<path d="M21.7541 1.2381C22.1285 1.56527 22.3956 1.99656 22.5208 2.47619C22.8506 4.29896 23.011 6.14802 22.9999 8C23.011 9.85198 22.8506 11.701 22.5208 13.5238C22.4221 14.0142 22.1501 14.4534 21.7541 14.7619C21.4249 15.134 20.9909 15.3994 20.5083 15.5238C18.6874 16 11.4999 16 11.4999 16C11.4999 16 4.31243 16 2.4916 15.5238C1.99813 15.4257 1.55623 15.1555 1.24576 14.7619C0.849712 14.4534 0.577777 14.0142 0.479095 13.5238C0.149225 11.701 -0.011173 9.85198 -7.13028e-05 8C-0.011173 6.14802 0.149225 4.29896 0.479095 2.47619C0.604247 1.99656 0.871314 1.56527 1.24576 1.2381C1.55623 0.844506 1.99813 0.57426 2.4916 0.476191C4.31243 0 11.4999 0 11.4999 0C11.4999 0 18.6874 0 20.5083 0.476191C20.9909 0.600564 21.4249 0.865973 21.7541 1.2381ZM15.1416 8L9.19993 4.57143V11.4286L15.1416 8Z" fill="black"/>
</svg>
