<svg width="120" height="14" viewBox="0 0 120 14" fill="none" xmlns="http://www.w3.org/2000/svg">
<g clip-path="url(#clip0_2_253)">
<path d="M0 0.390625H1.65444V13.0153H0V0.390625Z" fill="white"/>
<path d="M4.20874 0.390625H8.70449C9.6396 0.390625 10.4729 0.520291 11.2042 0.779624C11.9475 1.02716 12.5709 1.41027 13.0744 1.92893C13.5899 2.4476 13.9855 3.09593 14.2613 3.87392C14.537 4.65192 14.6749 5.56548 14.6749 6.61459C14.6749 7.6755 14.525 8.60674 14.2253 9.40831C13.9376 10.2098 13.518 10.8759 12.9665 11.4063C12.415 11.9368 11.7437 12.3375 10.9524 12.6087C10.1612 12.8798 9.27395 13.0153 8.29088 13.0153H4.20874V0.390625ZM8.36281 11.6008C9.9573 11.6008 11.1203 11.1647 11.8516 10.2924C12.5829 9.40831 12.9485 8.19416 12.9485 6.64996C12.9485 5.88375 12.8646 5.20005 12.6968 4.59888C12.5409 3.9977 12.2891 3.49082 11.9415 3.07825C11.6058 2.65388 11.1682 2.33561 10.6287 2.12343C10.0892 1.89946 9.44778 1.78748 8.70449 1.78748H5.86317V11.6008H8.36281Z" fill="white"/>
<path d="M16.7593 0.390625H25.0674V1.82284H18.4137V5.78355H24.7078V7.23345H18.4137V11.5831H25.4091L25.1394 13.0153H16.7593V0.390625Z" fill="white"/>
<path d="M31.5792 0.390625H33.3236L38.3049 13.0153H36.5066L35.1578 9.49672H29.6551L28.3063 13.0153H26.58L31.5792 0.390625ZM34.6543 8.08218L32.3885 2.22952L30.1586 8.08218H34.6543Z" fill="white"/>
<path d="M40.3049 9.42639C40.4487 10.3104 40.8024 10.9529 41.3659 11.3537C41.9413 11.7427 42.7925 11.9372 43.9195 11.9372C44.4829 11.9372 44.9505 11.8782 45.3221 11.7603C45.7058 11.6307 46.0115 11.4656 46.2393 11.2653C46.4671 11.0531 46.6289 10.8114 46.7248 10.5403C46.8207 10.2574 46.8687 9.96274 46.8687 9.65625C46.8687 9.40871 46.8387 9.17295 46.7788 8.94898C46.7188 8.71323 46.5989 8.50105 46.4191 8.31244C46.2513 8.12384 46.0115 7.95881 45.6998 7.81735C45.4001 7.6759 45.0104 7.56391 44.5309 7.4814L42.9124 7.19849C42.277 7.0924 41.7136 6.95095 41.222 6.77413C40.7305 6.59731 40.3109 6.37334 39.9632 6.10222C39.6275 5.81932 39.3698 5.47157 39.1899 5.059C39.0221 4.64643 38.9382 4.14544 38.9382 3.55605C38.9382 2.97845 39.0581 2.47157 39.2978 2.03542C39.5496 1.59927 39.8853 1.23385 40.3049 0.939159C40.7245 0.644464 41.222 0.426389 41.7975 0.284935C42.3729 0.143481 42.9963 0.0727539 43.6677 0.0727539C44.5189 0.0727539 45.2262 0.167057 45.7897 0.355662C46.3652 0.532479 46.8327 0.77413 47.1924 1.08061C47.552 1.38709 47.8218 1.74073 48.0016 2.14151C48.1934 2.53051 48.3373 2.9313 48.4332 3.34387L46.8867 3.64446C46.7908 3.29083 46.6649 2.97845 46.509 2.70733C46.3652 2.42442 46.1673 2.19456 45.9156 2.01774C45.6758 1.82914 45.3761 1.68768 45.0164 1.59338C44.6568 1.49908 44.2192 1.45193 43.7037 1.45193C43.1162 1.45193 42.6247 1.50497 42.2291 1.61106C41.8334 1.71715 41.5157 1.8645 41.276 2.05311C41.0362 2.22992 40.8624 2.448 40.7545 2.70733C40.6586 2.95487 40.6106 3.2201 40.6106 3.50301C40.6106 3.80949 40.6466 4.08061 40.7185 4.31637C40.8024 4.54034 40.9343 4.74073 41.1141 4.91755C41.3059 5.08258 41.5517 5.22403 41.8514 5.34191C42.1511 5.448 42.5228 5.5423 42.9664 5.62482L44.7647 5.94309C46.0954 6.19063 47.0725 6.60321 47.6959 7.18081C48.3193 7.74662 48.631 8.58356 48.631 9.69162C48.631 10.1985 48.5291 10.6759 48.3253 11.1238C48.1335 11.5599 47.8398 11.9431 47.4441 12.2731C47.0605 12.6032 46.575 12.8625 45.9875 13.0511C45.4001 13.2397 44.7107 13.334 43.9195 13.334C43.1642 13.334 42.4748 13.2574 41.8514 13.1042C41.24 12.9627 40.7065 12.7328 40.2509 12.4146C39.7954 12.0963 39.4297 11.6896 39.154 11.1945C38.8782 10.6994 38.7104 10.11 38.6505 9.42639H40.3049Z" fill="white"/>
<path d="M63.2928 3.96233C63.2928 4.98787 63.0111 5.81302 62.4476 6.43778C61.8961 7.06253 61.0809 7.46921 60.0019 7.65782L63.8503 13.0153H61.8542L58.2216 7.78159H55.9917V13.0153H54.3553V0.390625H58.5633C60.1218 0.390625 61.2967 0.691215 62.0879 1.29239C62.8912 1.89357 63.2928 2.78355 63.2928 3.96233ZM55.9917 6.38473H58.7251C59.4684 6.38473 60.0499 6.28453 60.4695 6.08414C60.8891 5.87196 61.1828 5.58905 61.3506 5.23542C61.5185 4.87 61.6024 4.45742 61.6024 3.9977C61.6024 3.52618 61.5125 3.1254 61.3327 2.79534C61.1528 2.46528 60.8411 2.21184 60.3975 2.03502C59.954 1.85821 59.3246 1.7698 58.5093 1.7698H55.9917V6.38473Z" fill="white"/>
<path d="M65.4307 0.390625H73.7388V1.82284H67.0851V5.78355H73.3792V7.23345H67.0851V11.5831H74.0805L73.8108 13.0153H65.4307V0.390625Z" fill="white"/>
<path d="M75.821 0.390625H80.119C81.0661 0.390625 81.8453 0.490822 82.4568 0.691215C83.0802 0.891608 83.5657 1.16272 83.9134 1.50457C84.273 1.84642 84.5188 2.2472 84.6507 2.70693C84.7945 3.15487 84.8665 3.63227 84.8665 4.13915C84.8665 4.6696 84.7945 5.17648 84.6507 5.65978C84.5068 6.14308 84.2551 6.56744 83.8954 6.93286C83.5357 7.29829 83.0503 7.58709 82.4389 7.79927C81.8275 8.01145 81.0541 8.11754 80.119 8.11754H77.4576V13.0153H75.821V0.390625ZM80.101 6.73837C80.7244 6.73837 81.2399 6.67943 81.6475 6.56155C82.0551 6.44367 82.3728 6.27275 82.6006 6.04878C82.8284 5.82481 82.9843 5.55958 83.0682 5.2531C83.1641 4.93483 83.212 4.58119 83.212 4.1922C83.212 3.79141 83.1641 3.43777 83.0682 3.13129C82.9723 2.82481 82.8044 2.57137 82.5647 2.37098C82.3249 2.17058 82.0012 2.02324 81.5936 1.92893C81.198 1.82284 80.6944 1.7698 80.083 1.7698H77.4576V6.73837H80.101Z" fill="white"/>
<path d="M92.0823 13.334C91.2071 13.334 90.4039 13.1926 89.6726 12.9097C88.9533 12.615 88.3299 12.1906 87.8024 11.6366C87.2869 11.0708 86.8852 10.3753 86.5975 9.55016C86.3098 8.72501 86.1659 7.78199 86.1659 6.72108C86.1659 5.66018 86.3098 4.71715 86.5975 3.89201C86.8972 3.06686 87.3048 2.37138 87.8204 1.80556C88.3479 1.23975 88.9713 0.809493 89.6906 0.514798C90.4219 0.220102 91.2191 0.0727539 92.0823 0.0727539C92.9575 0.0727539 93.7547 0.220102 94.4741 0.514798C95.2054 0.797706 95.8288 1.22206 96.3443 1.78788C96.8598 2.34191 97.2614 3.0315 97.5492 3.85664C97.8369 4.67 97.9807 5.60713 97.9807 6.66804C97.9807 7.72894 97.8369 8.67786 97.5492 9.5148C97.2734 10.3399 96.8778 11.0354 96.3623 11.6012C95.8468 12.167 95.2234 12.5973 94.492 12.892C93.7727 13.1867 92.9695 13.334 92.0823 13.334ZM92.0823 11.9195C92.7657 11.9195 93.3651 11.7957 93.8806 11.5482C94.4081 11.3006 94.8457 10.9529 95.1934 10.5049C95.5411 10.0452 95.8048 9.49712 95.9846 8.86057C96.1645 8.21224 96.2544 7.49319 96.2544 6.7034C96.2544 5.92541 96.1645 5.21814 95.9846 4.58159C95.8048 3.93326 95.5351 3.37924 95.1754 2.91951C94.8277 2.45978 94.3961 2.10615 93.8806 1.85861C93.3651 1.61106 92.7657 1.48729 92.0823 1.48729C91.387 1.48729 90.7756 1.61106 90.2481 1.85861C89.7326 2.10615 89.295 2.45978 88.9353 2.91951C88.5876 3.37924 88.3239 3.93326 88.144 4.58159C87.9762 5.21814 87.8923 5.92541 87.8923 6.7034C87.8923 7.49319 87.9762 8.21224 88.144 8.86057C88.3239 9.49712 88.5876 10.0452 88.9353 10.5049C89.283 10.9529 89.7146 11.3006 90.2301 11.5482C90.7576 11.7957 91.375 11.9195 92.0823 11.9195Z" fill="white"/>
<path d="M109.017 3.96233C109.017 4.98787 108.735 5.81302 108.172 6.43778C107.62 7.06253 106.805 7.46921 105.726 7.65782L109.574 13.0153H107.578L103.946 7.78159H101.716V13.0153H100.079V0.390625H104.287C105.846 0.390625 107.021 0.691215 107.812 1.29239C108.615 1.89357 109.017 2.78355 109.017 3.96233ZM101.716 6.38473H104.449C105.192 6.38473 105.774 6.28453 106.193 6.08414C106.613 5.87196 106.907 5.58905 107.075 5.23542C107.242 4.87 107.326 4.45742 107.326 3.9977C107.326 3.52618 107.236 3.1254 107.057 2.79534C106.877 2.46528 106.565 2.21184 106.121 2.03502C105.678 1.85821 105.049 1.7698 104.233 1.7698H101.716V6.38473Z" fill="white"/>
<path d="M114.038 1.84052H109.794V0.390625H119.955V1.84052H115.711V13.0153H114.038V1.84052Z" fill="white"/>
</g>
<defs>
<clipPath id="clip0_2_253">
<rect width="120" height="14" fill="white"/>
</clipPath>
</defs>
</svg>
