<svg width="96" height="17" viewBox="0 0 96 17" fill="none" xmlns="http://www.w3.org/2000/svg">
<g clip-path="url(#clip0_2_267)">
<path d="M1.36227 3.75461C0.904364 1.90009 0.560935 1.15599 0 0.354656V0.320312H3.35416V0.366104C3.04507 1.01862 2.94205 2.28931 3.31982 3.86909L5.39184 12.409L7.87598 4.20107L7.75006 3.75461C7.23492 1.90009 6.94872 1.15599 6.38779 0.354656V0.320312H9.74195V0.366104C9.4901 0.972829 9.2726 2.28931 9.70761 3.86909L11.9513 12.2373L13.783 4.89937C14.3783 2.47247 14.0921 1.04152 13.7486 0.366104V0.320312H15.6375V0.366104C14.8819 1.39639 14.7217 2.39234 14.2981 4.20107L11.4019 15.9235H11.0813L8.0477 4.80779L4.70498 15.9235H4.38445L1.36227 3.75461Z" fill="white"/>
<path d="M16.4846 15.7517V15.7059C16.8967 14.4353 17.1142 13.5767 17.1142 12.1801V3.88053C17.1142 2.47247 16.9082 1.64824 16.4846 0.354656V0.320312H23.9027L24.5323 4.07514L24.4064 4.14383C23.5593 2.96472 22.403 0.858353 21.6933 0.789667L18.9802 0.640846V7.77274H20.3654C21.1552 7.77274 21.7963 6.36467 22.3573 5.56334H22.5061V10.3256H22.3573C21.8421 9.59291 21.1324 8.1963 20.3654 8.1963H18.9802V15.4541L21.8421 15.3053C23.1586 15.2366 24.3949 13.1531 25.2993 11.5276L25.4252 11.5962L24.7155 15.7746H16.4846V15.7517Z" fill="white"/>
<path d="M27.005 11.9397V4.13238C27.005 2.42668 26.8791 1.64824 26.3639 0.354656V0.320312H30.1531C33.6675 0.320312 34.6978 2.32365 34.6978 4.57884C34.6978 7.38352 33.0608 9.43264 29.9127 9.43264H28.8481V11.9397C28.8481 13.6912 28.9625 14.4124 29.4891 15.7174V15.7632H26.3525V15.7174C26.8791 14.4238 27.005 13.6454 27.005 11.9397ZM29.4662 0.732428C29.3174 0.732428 29.1114 0.755323 28.8595 0.778219V8.99763H29.8555C31.9733 8.99763 32.8433 6.86837 32.8433 4.61318C32.8433 1.57956 31.5154 0.732428 29.8898 0.732428H29.4662Z" fill="white"/>
<path d="M36.289 11.9397V4.13238C36.289 2.42668 36.163 1.64824 35.6479 0.354656V0.320312H39.7462C42.6539 0.320312 43.8102 1.79706 43.8102 4.00646C43.8102 5.78084 43.089 7.23469 41.4863 7.91011L43.3866 12.8211C44.062 14.5955 44.4169 15.0534 45.2526 15.6029V15.7517H42.4249L39.5401 8.31077H38.1436V11.9397C38.1436 13.6912 38.2579 14.4124 38.7845 15.7174V15.7632H35.6479V15.7174C36.1516 14.4238 36.289 13.6454 36.289 11.9397ZM38.8991 0.732428C38.6931 0.732428 38.4297 0.732428 38.132 0.755324V7.88721H39.3799C41.3833 7.88721 41.9212 6.07848 41.9212 3.98356C41.9212 2.06036 41.3604 0.732428 39.3799 0.732428H38.8991Z" fill="white"/>
<path d="M46.134 15.7517V15.7059C46.5461 14.4353 46.7637 13.5767 46.7637 12.1801V3.88053C46.7637 2.47247 46.5576 1.64824 46.134 0.354656V0.320312H53.5521L54.1817 4.07514L54.0558 4.14383C53.2087 2.96472 52.0525 0.858353 51.3427 0.789667L48.6296 0.640846V7.77274H50.0148C50.8047 7.77274 51.4457 6.36467 52.0067 5.56334H52.1555V10.3256H52.0067C51.4915 9.59291 50.7818 8.1963 50.0148 8.1963H48.6296V15.4541L51.4915 15.3053C52.808 15.2366 53.8154 13.84 54.7198 12.2144L54.8457 12.2831L54.3649 15.7746H46.134V15.7517Z" fill="white"/>
<path d="M62.5385 4.48748C61.4166 1.36227 60.352 0.412116 59.2187 0.412116C58.1312 0.412116 57.4672 1.33937 57.4672 2.77033C57.4672 4.77367 58.818 5.6208 60.249 6.52516C61.8402 7.53255 63.4772 8.63153 63.4772 11.5621C63.4772 14.7216 61.5311 16.0496 59.2645 16.0496C58.177 16.0496 57.0322 15.7519 55.9561 15.2253L55.7501 12.2375L55.876 12.1688C57.1123 15.2025 58.2456 15.6146 59.7109 15.6146C61.1762 15.6146 61.8746 14.2637 61.8746 12.7298C61.8746 10.7264 60.7183 9.71906 59.3904 8.87193C57.7191 7.79585 56.0363 6.74267 56.0363 3.99523C56.0363 1.12187 57.8106 0 59.7453 0C60.7069 0 61.6113 0.251849 62.3668 0.606726L62.6873 4.41879L62.5385 4.48748Z" fill="white"/>
<path d="M64.3931 15.7517V15.7059C64.8052 14.4353 65.0227 13.5767 65.0227 12.1801V3.88053C65.0227 2.47247 64.8166 1.64824 64.3931 0.354656V0.320312H71.8111L72.4408 4.07514L72.3148 4.14383C71.4677 2.96472 70.3115 0.858353 69.6017 0.789667L66.8887 0.640846V7.77274H68.2738C69.0637 7.77274 69.7048 6.36467 70.2657 5.56334H70.4145V10.3256H70.2657C69.7506 9.59291 69.0408 8.1963 68.2738 8.1963H66.8887V15.4541L69.7506 15.3053C71.067 15.2366 72.3034 13.1531 73.2078 11.5276L73.3337 11.5962L72.6239 15.7746H64.3931V15.7517Z" fill="white"/>
<path d="M75.4058 11.5505C75.4058 13.4508 75.6118 14.2292 76.5162 15.7059V15.7517H74.0435V15.7059C74.8449 14.2521 75.028 13.4279 75.028 11.5505V3.28526C74.9479 1.88864 74.6731 1.30481 73.7802 0.354656V0.320312H76.3445L83.0757 12.3174L83.0299 4.51015C83.0299 2.63274 82.8239 1.80851 82.0454 0.354656V0.320312H84.3579V0.366104C83.5909 1.84285 83.3733 2.62129 83.3733 4.5216V15.7632L82.801 15.8319L75.3486 2.52971L75.4058 11.5505Z" fill="white"/>
<path d="M88.9139 15.7519V15.7061C89.4291 14.424 89.555 13.6341 89.555 11.9284V0.675406L87.8035 0.75554C87.0937 0.824226 85.9032 3.18244 85.0904 4.71643L84.9645 4.64774L85.5712 0.309082H95.3818L95.9886 4.64774L95.8626 4.71643C94.9926 3.18244 93.8708 0.812778 93.1495 0.75554L91.3981 0.675406V11.9399C91.3981 13.6914 91.5125 14.4126 92.0391 15.7176V15.7634H88.9139V15.7519Z" fill="white"/>
</g>
<defs>
<clipPath id="clip0_2_267">
<rect width="96" height="17" fill="white"/>
</clipPath>
</defs>
</svg>
